<svg width="22" height="23" viewBox="0 0 22 23" fill="none" xmlns="http://www.w3.org/2000/svg">
<path d="M20.4873 0.996654C20.4854 0.582445 20.1482 0.24816 19.734 0.250008C19.3197 0.251856 18.9855 0.589137 18.9873 1.00335L18.9962 2.98906C18.9998 3.79848 19.0011 4.34217 18.9562 4.75351L18.9545 4.76877C18.498 4.26696 17.9947 3.80854 17.4515 3.40038C15.6546 2.05032 13.4197 1.25 11 1.25C5.06294 1.25 0.25 6.06294 0.25 12C0.25 17.9371 5.06294 22.75 11 22.75C16.9371 22.75 21.75 17.9371 21.75 12C21.75 11.5858 21.4142 11.25 21 11.25C20.5858 11.25 20.25 11.5858 20.25 12C20.25 17.1086 16.1086 21.25 11 21.25C5.89137 21.25 1.75 17.1086 1.75 12C1.75 6.89137 5.89137 2.75 11 2.75C13.0836 2.75 15.0044 3.43804 16.5505 4.59962C17.0494 4.97451 17.5093 5.39871 17.9228 5.86494C17.8945 5.86873 17.8649 5.87232 17.834 5.8757C17.4226 5.92062 16.8789 5.91933 16.0695 5.91572L14.0838 5.90686C13.6696 5.90501 13.3323 6.2393 13.3305 6.65351C13.3286 7.06772 13.6629 7.405 14.0771 7.40685L16.1061 7.4159C16.861 7.41929 17.4906 7.42211 17.9968 7.36684C18.5277 7.30886 19.0171 7.17926 19.4421 6.85029C19.5099 6.79784 19.5751 6.74227 19.6376 6.68379C19.7436 6.58449 19.8417 6.4768 19.9307 6.36169C20.2597 5.93661 20.3893 5.44728 20.4473 4.91635C20.5026 4.41017 20.4997 3.7806 20.4964 3.02573L20.4873 0.996654Z" fill="#2D264B"/>
<path d="M8.75 10.4142C8.75 9.22416 7.31117 8.62817 6.46967 9.46967L5.46967 10.4697C5.17678 10.7626 5.17678 11.2374 5.46967 11.5303C5.76256 11.8232 6.23744 11.8232 6.53033 11.5303L7.25 10.8107V16C7.25 16.4142 7.58579 16.75 8 16.75C8.41421 16.75 8.75 16.4142 8.75 16V10.4142Z" fill="#2D264B"/>
<path fill-rule="evenodd" clip-rule="evenodd" d="M14 9.25C12.4812 9.25 11.25 10.4812 11.25 12V14C11.25 15.5188 12.4812 16.75 14 16.75C15.5188 16.75 16.75 15.5188 16.75 14V12C16.75 10.4812 15.5188 9.25 14 9.25ZM12.75 12C12.75 11.3096 13.3096 10.75 14 10.75C14.6904 10.75 15.25 11.3096 15.25 12V14C15.25 14.6904 14.6904 15.25 14 15.25C13.3096 15.25 12.75 14.6904 12.75 14V12Z" fill="#2D264B"/>
</svg>
