<svg width="17" height="20" viewBox="0 0 17 20" fill="none" xmlns="http://www.w3.org/2000/svg">
<path d="M9.72141 0.528758C9.46106 0.268409 9.03895 0.268409 8.7786 0.528758C8.51825 0.789108 8.51825 1.21122 8.7786 1.47157L9.64053 2.3335L7.8522 2.33348C6.13221 2.33327 5.1036 2.33314 4.24891 2.61084C2.52376 3.17138 1.17122 4.52392 0.610684 6.24907C0.332977 7.10376 0.333107 8.13237 0.333325 9.85236V10.148C0.333107 11.868 0.332977 12.8966 0.610684 13.7513C0.724461 14.1014 1.10056 14.2931 1.45073 14.1793C1.8009 14.0655 1.99254 13.6894 1.87876 13.3392C1.6749 12.7118 1.66667 11.9133 1.66667 10.0002C1.66667 8.08699 1.6749 7.28852 1.87876 6.66109C2.3074 5.34186 3.3417 4.30756 4.66093 3.87892C5.28836 3.67505 6.08683 3.66683 8 3.66683H9.40864L8.57321 4.36302C8.29036 4.59872 8.25215 5.0191 8.48786 5.30195C8.72357 5.5848 9.14394 5.62302 9.42679 5.38731L10.8356 4.21333C11.2016 3.90835 11.4022 3.48067 11.4315 3.04485C11.4624 2.58514 11.3029 2.11024 10.9471 1.75445L9.72141 0.528758Z" fill="#FAFAFA"/>
<path d="M16.3918 5.8019C16.2823 5.45037 15.9086 5.25416 15.557 5.36366C15.2055 5.47315 15.0093 5.84689 15.1188 6.19842C15.3257 6.86279 15.3333 7.7066 15.3333 9.69818C15.3333 11.6898 15.3257 12.5336 15.1188 13.1979C14.685 14.5905 13.6431 15.6688 12.3311 16.1135C11.7082 16.3246 10.9151 16.3335 9 16.3335H7.60948L8.47141 15.4716C8.73176 15.2112 8.73176 14.7891 8.47141 14.5288C8.21106 14.2684 7.78895 14.2684 7.5286 14.5288L6.3029 15.7545C5.94711 16.1102 5.78762 16.5851 5.81851 17.0448C5.84778 17.4807 6.04846 17.9083 6.41444 18.2133L7.82321 19.3873C8.10607 19.623 8.52644 19.5848 8.76215 19.302C8.99786 19.0191 8.95965 18.5987 8.67679 18.363L7.84137 17.6668L9.15173 17.6668C10.8678 17.6671 11.9007 17.6672 12.7591 17.3763C14.4914 16.7891 15.8364 15.3776 16.3918 13.5945C16.667 12.711 16.6669 11.6464 16.6667 9.84334V9.55302C16.6669 7.74996 16.667 6.68539 16.3918 5.8019Z" fill="#FAFAFA"/>
</svg>
