<svg width="17" height="20" viewBox="0 0 17 20" fill="none" xmlns="http://www.w3.org/2000/svg">
<path d="M9.72135 0.52827C9.461 0.26792 9.03889 0.26792 8.77854 0.52827C8.51819 0.78862 8.51819 1.21073 8.77854 1.47108L9.64047 2.33301L7.85214 2.333C6.13215 2.33278 5.10354 2.33265 4.24885 2.61035C2.5237 3.17089 1.17116 4.52343 0.610623 6.24858C0.332916 7.10327 0.333046 8.13188 0.333264 9.85187V10.1475C0.333046 11.8675 0.332916 12.8961 0.610623 13.7508C0.7244 14.1009 1.1005 14.2926 1.45067 14.1788C1.80084 14.065 1.99248 13.6889 1.8787 13.3387C1.67483 12.7113 1.66661 11.9128 1.66661 9.99967C1.66661 8.0865 1.67483 7.28803 1.8787 6.6606C2.30734 5.34137 3.34164 4.30707 4.66087 3.87843C5.2883 3.67457 6.08677 3.66634 7.99994 3.66634H9.40858L8.57315 4.36253C8.2903 4.59824 8.25209 5.01861 8.4878 5.30146C8.72351 5.58432 9.14388 5.62253 9.42673 5.38682L10.8355 4.21284C11.2015 3.90786 11.4022 3.48019 11.4314 3.04436C11.4623 2.58465 11.3028 2.10976 10.947 1.75397L9.72135 0.52827Z" fill="#2D264B"/>
<path d="M16.3917 5.80141C16.2822 5.44988 15.9085 5.25367 15.557 5.36317C15.2054 5.47267 15.0092 5.8464 15.1187 6.19793C15.3257 6.8623 15.3333 7.70611 15.3333 9.69769C15.3333 11.6893 15.3257 12.5331 15.1187 13.1975C14.685 14.59 13.6431 15.6683 12.331 16.113C11.7081 16.3241 10.915 16.333 8.99994 16.333H7.60942L8.47135 15.4711C8.7317 15.2107 8.7317 14.7886 8.47135 14.5283C8.211 14.2679 7.78889 14.2679 7.52854 14.5283L6.30284 15.754C5.94705 16.1098 5.78756 16.5847 5.81845 17.0444C5.84772 17.4802 6.0484 17.9079 6.41438 18.2128L7.82315 19.3868C8.106 19.6225 8.52638 19.5843 8.76209 19.3015C8.9978 19.0186 8.95958 18.5982 8.67673 18.3625L7.84131 17.6663L9.15167 17.6664C10.8677 17.6666 11.9006 17.6667 12.759 17.3758C14.4914 16.7886 15.8363 15.3771 16.3917 13.594C16.6669 12.7105 16.6668 11.6459 16.6666 9.84285V9.55254C16.6668 7.74947 16.6669 6.68491 16.3917 5.80141Z" fill="#2D264B"/>
</svg>
