<svg width="21" height="18" viewBox="0 0 21 18" fill="none" xmlns="http://www.w3.org/2000/svg">
<path d="M10.1127 0.656932C10.8822 0.171472 11.6845 -0.1618 12.5195 0.0815853C12.7967 0.162362 13.0594 0.286271 13.298 0.44876C14.0169 0.938348 14.2699 1.76942 14.3847 2.67202C14.4501 3.18569 14.4784 3.79861 14.4907 4.51007L18.7806 0.220068C19.0735 -0.0728259 19.5484 -0.0728272 19.8413 0.220065C20.1342 0.512958 20.1342 0.987831 19.8413 1.28073L3.84138 17.2807C3.54849 17.5736 3.07362 17.5736 2.78072 17.2807C2.48783 16.9878 2.48783 16.513 2.78072 16.2201L5.96365 13.0371C5.90829 12.9924 5.86801 12.9608 5.82791 12.9309C5.15104 12.4265 4.3393 12.1351 3.49617 12.0939C3.3966 12.089 3.29225 12.0888 3.03377 12.0888L2.99221 12.0888C2.76939 12.0889 2.59771 12.0889 2.44421 12.0717C1.16758 11.9289 0.159921 10.9212 0.017071 9.64459C-0.000103945 9.4911 -5.5486e-05 9.31942 7.4565e-06 9.09661V7.86668C-5.5486e-05 7.64387 -0.000103945 7.47219 0.0170711 7.3187C0.159921 6.04206 1.16758 5.03441 2.44421 4.89156C2.5977 4.87438 2.76937 4.87443 2.99217 4.87449L3.03377 4.8745C3.29225 4.8745 3.3966 4.87429 3.49617 4.86942C4.3393 4.82816 5.15104 4.53676 5.82791 4.03237C5.90785 3.9728 5.98851 3.90659 6.18797 3.7422L7.22816 2.8849C8.40177 1.91762 9.3398 1.14449 10.1127 0.656932Z" fill="#2D264B"/>
<path d="M13.0672 10.0548C13.596 9.5261 14.5 9.90058 14.5 10.6483C14.5 12.1692 14.5 13.3848 14.3847 14.2913C14.2699 15.1939 14.0169 16.0249 13.298 16.5145C13.0594 16.677 12.7967 16.8009 12.5195 16.8817C11.6845 17.1251 10.8822 16.7918 10.1127 16.3064C10.0745 16.2823 10.036 16.2575 9.99705 16.2321C9.16569 15.6891 8.75001 15.4177 8.70085 14.944C8.65169 14.4704 9.03279 14.0893 9.79497 13.3271L13.0672 10.0548Z" fill="#2D264B"/>
</svg>
