<svg width="15" height="14" viewBox="0 0 15 14" fill="none" xmlns="http://www.w3.org/2000/svg">
<path d="M14.75 1C14.75 0.585786 14.4142 0.25 14 0.25C13.5858 0.25 13.25 0.585786 13.25 1V13C13.25 13.4142 13.5858 13.75 14 13.75C14.4142 13.75 14.75 13.4142 14.75 13V1Z" fill="#FAFAFA"/>
<path d="M8.29283 2.25183C7.18208 1.59931 6.30261 1.08265 5.58419 0.745532C4.86233 0.406795 4.18921 0.191651 3.5124 0.264032C2.48075 0.374361 1.54757 0.92453 0.942478 1.77195C0.547251 2.32545 0.394597 3.01875 0.322137 3.82239C0.249988 4.62258 0.249994 5.65472 0.25 6.96106V7.03893C0.249993 8.34527 0.249987 9.37742 0.322136 10.1776C0.394595 10.9813 0.547249 11.6745 0.942476 12.228C1.54757 13.0755 2.48074 13.6256 3.5124 13.736C4.18921 13.8083 4.86233 13.5932 5.58419 13.2545C6.30261 12.9174 7.18206 12.4007 8.2928 11.7482L8.36146 11.7078C9.47242 11.0552 10.3518 10.5386 10.9978 10.0742C11.6481 9.60675 12.1633 9.1237 12.4368 8.49866C12.8544 7.54441 12.8544 6.45559 12.4368 5.50135C12.1633 4.8763 11.6481 4.39325 10.9978 3.92578C10.3518 3.4614 9.47244 2.94479 8.36149 2.29217L8.29283 2.25183Z" fill="#FAFAFA"/>
</svg>
