<svg width="15" height="18" viewBox="0 0 15 18" fill="none" xmlns="http://www.w3.org/2000/svg">
<path d="M12.7695 0.331585C11.9345 0.0882 11.1322 0.421472 10.3627 0.906932C9.5898 1.39449 8.65177 2.16762 7.47816 3.1349L6.43797 3.9922C6.23851 4.15659 6.15785 4.2228 6.07791 4.28237C5.40104 4.78676 4.5893 5.07816 3.74617 5.11942C3.6466 5.12429 3.54225 5.1245 3.28377 5.1245L3.2422 5.12449C3.01938 5.12443 2.8477 5.12438 2.69421 5.14156C1.41758 5.28441 0.409921 6.29206 0.267071 7.5687C0.249896 7.72219 0.249945 7.89387 0.250007 8.11668V9.34661C0.249945 9.56942 0.249896 9.7411 0.267071 9.89459C0.409921 11.1712 1.41758 12.1789 2.69421 12.3217C2.84771 12.3389 3.01939 12.3389 3.24221 12.3388L3.28377 12.3388C3.54225 12.3388 3.6466 12.339 3.74617 12.3439C4.5893 12.3851 5.40104 12.6765 6.07791 13.1809C6.15785 13.2405 6.23851 13.3067 6.43797 13.4711L7.47814 14.3284C8.65176 15.2957 9.5898 16.0688 10.3627 16.5564C11.1322 17.0418 11.9345 17.3751 12.7695 17.1317C13.0467 17.0509 13.3094 16.927 13.548 16.7645C14.2669 16.2749 14.5199 15.4439 14.6347 14.5413C14.75 13.6348 14.75 12.4192 14.75 10.8983V6.56497C14.75 5.04411 14.75 3.82853 14.6347 2.92202C14.5199 2.01942 14.2669 1.18835 13.548 0.69876C13.3094 0.536271 13.0467 0.412362 12.7695 0.331585Z" fill="#FAFAFA"/>
</svg>
