<svg width="24" height="18" viewBox="0 0 24 18" fill="none" xmlns="http://www.w3.org/2000/svg">
<path d="M12.7695 0.331585C11.9345 0.0882 11.1322 0.421472 10.3627 0.906932C9.5898 1.39449 8.65177 2.16762 7.47816 3.1349L6.43797 3.9922C6.23851 4.15659 6.15785 4.2228 6.07791 4.28237C5.40104 4.78676 4.5893 5.07816 3.74617 5.11942C3.6466 5.12429 3.54225 5.1245 3.28377 5.1245L3.2422 5.12449C3.01938 5.12443 2.8477 5.12438 2.69421 5.14156C1.41758 5.28441 0.409921 6.29206 0.267071 7.5687C0.249896 7.72219 0.249945 7.89387 0.250007 8.11668V9.34661C0.249945 9.56942 0.249896 9.7411 0.267071 9.89459C0.409921 11.1712 1.41758 12.1789 2.69421 12.3217C2.84771 12.3389 3.01939 12.3389 3.24221 12.3388L3.28377 12.3388C3.54225 12.3388 3.6466 12.339 3.74617 12.3439C4.5893 12.3851 5.40104 12.6765 6.07791 13.1809C6.15785 13.2405 6.23851 13.3067 6.43797 13.4711L7.47814 14.3284C8.65176 15.2957 9.5898 16.0688 10.3627 16.5564C11.1322 17.0418 11.9345 17.3751 12.7695 17.1317C13.0467 17.0509 13.3094 16.927 13.548 16.7645C14.2669 16.2749 14.5199 15.4439 14.6347 14.5413C14.75 13.6348 14.75 12.4192 14.75 10.8983V6.56497C14.75 5.04411 14.75 3.82853 14.6347 2.92202C14.5199 2.01942 14.2669 1.18835 13.548 0.69876C13.3094 0.536271 13.0467 0.412362 12.7695 0.331585Z" fill="#2D264B"/>
<path d="M19.5303 1.20132C19.2375 0.908422 18.7626 0.908421 18.4697 1.20131C18.1768 1.49421 18.1768 1.96908 18.4697 2.26197L19.1697 2.96197C19.7784 3.57068 20.0473 3.84064 20.2496 4.08271C22.4986 6.77401 22.4986 10.6893 20.2496 13.3806C20.0473 13.6227 19.7784 13.8926 19.1697 14.5013L18.4697 15.2013C18.1768 15.4942 18.1768 15.9691 18.4697 16.262C18.7626 16.5549 19.2375 16.5549 19.5303 16.262L20.266 15.5263C20.8295 14.9628 21.1497 14.6426 21.4006 14.3424C24.1149 11.0943 24.1149 6.36898 21.4006 3.12086C21.1497 2.82067 20.8295 2.50046 20.266 1.93693L19.5303 1.20132Z" fill="#2D264B"/>
<path d="M17.5303 4.20131C17.2375 3.90842 16.7626 3.90842 16.4697 4.20131C16.1768 4.49421 16.1768 4.96908 16.4697 5.26197L16.8697 5.66198C16.9314 5.72367 16.9566 5.74893 16.9769 5.76979C18.5796 7.41912 18.5796 10.0442 16.9769 11.6935C16.9566 11.7144 16.9314 11.7396 16.8697 11.8013L16.4697 12.2013C16.1768 12.4942 16.1768 12.9691 16.4697 13.262C16.7626 13.5549 17.2375 13.5549 17.5303 13.262L17.9357 12.8566C17.9904 12.8019 18.0239 12.7684 18.0526 12.7389C20.2211 10.5074 20.2211 6.95587 18.0526 4.72442C18.0239 4.69487 17.9905 4.66146 17.9357 4.60663L17.5303 4.20131Z" fill="#2D264B"/>
</svg>
