<svg width="18" height="20" viewBox="0 0 18 20" fill="none" xmlns="http://www.w3.org/2000/svg">
<path fill-rule="evenodd" clip-rule="evenodd" d="M10.4144 0.531506C10.6731 0.20806 11.1451 0.155619 11.4686 0.414376L12.7186 1.41438C13.6866 2.18884 13.139 3.75003 11.8993 3.75003H8.00003C6.08038 3.75003 5.29842 3.75928 4.68671 3.95804C3.39285 4.37844 2.37844 5.39284 1.95804 6.68671C1.75929 7.29842 1.75003 8.08037 1.75003 10C1.75003 11.9197 1.75929 12.7016 1.95804 13.3133C2.08604 13.7073 1.87045 14.1304 1.47651 14.2584C1.08257 14.3864 0.659457 14.1708 0.531458 13.7769C0.249584 12.9094 0.249748 11.8681 0.250016 10.1619C0.250025 10.1086 0.250033 10.0546 0.250033 10C0.250033 9.94542 0.250025 9.89148 0.250016 9.83819C0.249748 8.13191 0.249584 7.0907 0.531458 6.22318C1.10024 4.47266 2.47267 3.10023 4.22319 2.53145C5.0907 2.24958 6.13192 2.24974 7.83819 2.25001C7.89149 2.25002 7.94543 2.25003 8.00003 2.25003H11.3619L10.5315 1.58568C10.2081 1.32692 10.1556 0.854953 10.4144 0.531506Z" fill="#2D264B"/>
<path d="M16.5236 5.74165C16.9175 5.61365 17.3406 5.82924 17.4686 6.22318C17.7505 7.0907 17.7503 8.13191 17.75 9.8382C17.75 9.89149 17.75 9.94543 17.75 10C17.75 10.0546 17.75 10.1086 17.75 10.1619C17.7503 11.8681 17.7505 12.9094 17.4686 13.7769C16.8998 15.5274 15.5274 16.8998 13.7769 17.4686C12.9094 17.7505 11.8681 17.7503 10.1619 17.75C10.1086 17.75 10.0546 17.75 10 17.75H7.98789C7.51075 17.75 7.08817 17.75 6.71163 17.7456L7.49613 18.4375C7.80678 18.7115 7.8365 19.1855 7.56252 19.4961C7.28853 19.8068 6.81459 19.8365 6.50393 19.5625L5.23139 18.4402C4.71249 17.9825 4.85745 17.3224 4.99706 17.0182C5.14078 16.705 5.52267 16.2125 6.15565 16.2337C6.64198 16.2499 7.23364 16.25 8.00003 16.25H10C11.9197 16.25 12.7016 16.2408 13.3134 16.042C14.6072 15.6216 15.6216 14.6072 16.042 13.3133C16.2408 12.7016 16.25 11.9197 16.25 10C16.25 8.08037 16.2408 7.29842 16.042 6.68671C15.914 6.29277 16.1296 5.86965 16.5236 5.74165Z" fill="#2D264B"/>
<path d="M7.4697 6.4697C8.3112 5.6282 9.75003 6.22418 9.75003 7.41424V13C9.75003 13.4142 9.41425 13.75 9.00003 13.75C8.58582 13.75 8.25003 13.4142 8.25003 13V7.81069L7.53036 8.53036C7.23747 8.82325 6.7626 8.82325 6.4697 8.53036C6.17681 8.23746 6.17681 7.76259 6.4697 7.4697L7.4697 6.4697Z" fill="#2D264B"/>
</svg>
