<svg width="18" height="20" viewBox="0 0 18 20" fill="none" xmlns="http://www.w3.org/2000/svg">
<path fill-rule="evenodd" clip-rule="evenodd" d="M10.4143 0.531506C10.6731 0.20806 11.145 0.155619 11.4685 0.414376L12.7185 1.41438C13.6866 2.18884 13.1389 3.75003 11.8992 3.75003H7.99997C6.08032 3.75003 5.29836 3.75928 4.68665 3.95804C3.39279 4.37844 2.37838 5.39284 1.95798 6.68671C1.75923 7.29842 1.74997 8.08037 1.74997 10C1.74997 11.9197 1.75923 12.7016 1.95798 13.3133C2.08598 13.7073 1.87039 14.1304 1.47645 14.2584C1.08251 14.3864 0.659396 14.1708 0.531397 13.7769C0.249523 12.9094 0.249687 11.8681 0.249955 10.1619C0.249964 10.1086 0.249972 10.0546 0.249972 10C0.249972 9.94542 0.249964 9.89148 0.249955 9.83819C0.249687 8.13191 0.249523 7.0907 0.531397 6.22318C1.10017 4.47266 2.47261 3.10023 4.22312 2.53145C5.09064 2.24958 6.13186 2.24974 7.83813 2.25001C7.89143 2.25002 7.94537 2.25003 7.99997 2.25003H11.3619L10.5315 1.58568C10.208 1.32692 10.1556 0.854953 10.4143 0.531506Z" fill="#FAFAFA"/>
<path d="M16.5235 5.74165C16.9174 5.61365 17.3405 5.82924 17.4685 6.22318C17.7504 7.0907 17.7503 8.13191 17.75 9.8382C17.75 9.89149 17.75 9.94543 17.75 10C17.75 10.0546 17.75 10.1086 17.75 10.1619C17.7503 11.8681 17.7504 12.9094 17.4685 13.7769C16.8998 15.5274 15.5273 16.8998 13.7768 17.4686C12.9093 17.7505 11.8681 17.7503 10.1618 17.75C10.1085 17.75 10.0546 17.75 9.99997 17.75H7.98783C7.51069 17.75 7.08811 17.75 6.71157 17.7456L7.49607 18.4375C7.80672 18.7115 7.83644 19.1855 7.56245 19.4961C7.28847 19.8068 6.81452 19.8365 6.50387 19.5625L5.23133 18.4402C4.71243 17.9825 4.85739 17.3224 4.99699 17.0182C5.14072 16.705 5.52261 16.2125 6.15559 16.2337C6.64192 16.2499 7.23358 16.25 7.99997 16.25H9.99997C11.9196 16.25 12.7016 16.2408 13.3133 16.042C14.6072 15.6216 15.6216 14.6072 16.042 13.3133C16.2407 12.7016 16.25 11.9197 16.25 10C16.25 8.08037 16.2407 7.29842 16.042 6.68671C15.914 6.29277 16.1295 5.86965 16.5235 5.74165Z" fill="#FAFAFA"/>
<path d="M7.46964 6.4697C8.31114 5.6282 9.74997 6.22418 9.74997 7.41424V13C9.74997 13.4142 9.41419 13.75 8.99997 13.75C8.58576 13.75 8.24997 13.4142 8.24997 13V7.81069L7.5303 8.53036C7.23741 8.82325 6.76254 8.82325 6.46964 8.53036C6.17675 8.23746 6.17675 7.76259 6.46964 7.4697L7.46964 6.4697Z" fill="#FAFAFA"/>
</svg>
