<svg width="22" height="22" viewBox="0 0 22 22" fill="none" xmlns="http://www.w3.org/2000/svg">
<path d="M9.75 7C9.75 6.58579 9.41421 6.25 9 6.25C8.58579 6.25 8.25 6.58579 8.25 7L8.25 15C8.25 15.4142 8.58579 15.75 9 15.75C9.41421 15.75 9.75 15.4142 9.75 15L9.75 7Z" fill="#FAFAFA"/>
<path d="M13.75 7C13.75 6.58579 13.4142 6.25 13 6.25C12.5858 6.25 12.25 6.58579 12.25 7V15C12.25 15.4142 12.5858 15.75 13 15.75C13.4142 15.75 13.75 15.4142 13.75 15V7Z" fill="#FAFAFA"/>
<path fill-rule="evenodd" clip-rule="evenodd" d="M11 0.25C5.06294 0.25 0.25 5.06294 0.25 11C0.25 16.9371 5.06294 21.75 11 21.75C16.9371 21.75 21.75 16.9371 21.75 11C21.75 5.06294 16.9371 0.25 11 0.25ZM1.75 11C1.75 5.89137 5.89137 1.75 11 1.75C16.1086 1.75 20.25 5.89137 20.25 11C20.25 16.1086 16.1086 20.25 11 20.25C5.89137 20.25 1.75 16.1086 1.75 11Z" fill="#FAFAFA"/>
</svg>
