<svg width="15" height="14" viewBox="0 0 15 14" fill="none" xmlns="http://www.w3.org/2000/svg">
<path d="M1.75 0.999999C1.75 0.585786 1.41421 0.25 1 0.25C0.585786 0.25 0.25 0.585786 0.25 0.999999V13C0.25 13.4142 0.585787 13.75 1 13.75C1.41421 13.75 1.75 13.4142 1.75 13L1.75 0.999999Z" fill="#FAFAFA"/>
<path d="M11.4876 0.26403C10.8108 0.191649 10.1377 0.406793 9.41581 0.745529C8.69739 1.08265 7.81795 1.59929 6.70721 2.25181L6.63852 2.29216C5.52757 2.94478 4.64816 3.46139 4.00218 3.92578C3.3519 4.39325 2.83666 4.8763 2.56316 5.50134C2.14561 6.45559 2.14561 7.54441 2.56316 8.49866C2.83666 9.1237 3.3519 9.60675 4.00217 10.0742C4.64816 10.5386 5.52756 11.0552 6.63851 11.7078L6.70723 11.7482C7.81796 12.4007 8.6974 12.9174 9.41581 13.2545C10.1377 13.5932 10.8108 13.8083 11.4876 13.736C12.5193 13.6256 13.4524 13.0755 14.0575 12.228C14.4528 11.6745 14.6054 10.9813 14.6779 10.1776C14.75 9.37742 14.75 8.34528 14.75 7.03894V6.96104C14.75 5.65471 14.75 4.62257 14.6779 3.82239C14.6054 3.01875 14.4528 2.32545 14.0575 1.77195C13.4524 0.92453 12.5193 0.37436 11.4876 0.26403Z" fill="#FAFAFA"/>
</svg>
