<svg width="22" height="23" viewBox="0 0 22 23" fill="none" xmlns="http://www.w3.org/2000/svg">
<path d="M4.96852 1.83568C5.29197 1.57692 5.34441 1.10495 5.08565 0.781506C4.82689 0.45806 4.35493 0.405619 4.03148 0.664376L1.53148 2.66438C1.20803 2.92313 1.15559 3.3951 1.41435 3.71855C1.67311 4.042 2.14507 4.09444 2.46852 3.83568L4.96852 1.83568Z" fill="#FAFAFA"/>
<path d="M17.9685 0.664376C17.6451 0.405619 17.1731 0.45806 16.9143 0.781506C16.6556 1.10495 16.708 1.57692 17.0315 1.83568L19.5315 3.83568C19.8549 4.09444 20.3269 4.042 20.5857 3.71855C20.8444 3.3951 20.792 2.92313 20.4685 2.66438L17.9685 0.664376Z" fill="#FAFAFA"/>
<path d="M11.75 8.25003C11.75 7.83581 11.4142 7.50003 11 7.50003C10.5858 7.50003 10.25 7.83581 10.25 8.25003V12.4559C10.25 12.7747 10.1282 13.0814 9.90951 13.3134L8.4543 14.8569C8.17015 15.1582 8.18412 15.6329 8.4855 15.9171C8.78689 16.2012 9.26156 16.1872 9.5457 15.8858L11.0009 14.3424C11.482 13.8321 11.75 13.1572 11.75 12.4559V8.25003Z" fill="#FAFAFA"/>
<path fill-rule="evenodd" clip-rule="evenodd" d="M11 1.50003C5.06294 1.50003 0.25 6.31296 0.25 12.25C0.25 18.1871 5.06294 23 11 23C16.9371 23 21.75 18.1871 21.75 12.25C21.75 6.31296 16.9371 1.50003 11 1.50003ZM1.75 12.25C1.75 7.14139 5.89137 3.00003 11 3.00003C16.1086 3.00003 20.25 7.14139 20.25 12.25C20.25 17.3587 16.1086 21.5 11 21.5C5.89137 21.5 1.75 17.3587 1.75 12.25Z" fill="#FAFAFA"/>
</svg>
