<svg width="21" height="18" viewBox="0 0 21 18" fill="none" xmlns="http://www.w3.org/2000/svg">
<path d="M12.7695 0.331585C11.9345 0.0882 11.1322 0.421472 10.3627 0.906932C9.5898 1.39449 8.65177 2.16762 7.47816 3.1349L6.43797 3.9922C6.23851 4.15659 6.15785 4.2228 6.07791 4.28237C5.40104 4.78676 4.5893 5.07816 3.74617 5.11942C3.6466 5.12429 3.54225 5.1245 3.28377 5.1245L3.2422 5.12449C3.01938 5.12443 2.8477 5.12438 2.69421 5.14156C1.41758 5.28441 0.409921 6.29206 0.267071 7.5687C0.249896 7.72219 0.249945 7.89387 0.250007 8.11668V9.34661C0.249945 9.56942 0.249896 9.7411 0.267071 9.89459C0.409921 11.1712 1.41758 12.1789 2.69421 12.3217C2.84771 12.3389 3.01939 12.3389 3.24221 12.3388L3.28377 12.3388C3.54225 12.3388 3.6466 12.339 3.74617 12.3439C4.5893 12.3851 5.40104 12.6765 6.07791 13.1809C6.15785 13.2405 6.23851 13.3067 6.43797 13.4711L7.47814 14.3284C8.65176 15.2957 9.5898 16.0688 10.3627 16.5564C11.1322 17.0418 11.9345 17.3751 12.7695 17.1317C13.0467 17.0509 13.3094 16.927 13.548 16.7645C14.2669 16.2749 14.5199 15.4439 14.6347 14.5413C14.75 13.6348 14.75 12.4192 14.75 10.8983V6.56497C14.75 5.04411 14.75 3.82853 14.6347 2.92202C14.5199 2.01942 14.2669 1.18835 13.548 0.69876C13.3094 0.536271 13.0467 0.412362 12.7695 0.331585Z" fill="#FAFAFA"/>
<path d="M18.5303 4.20131C18.2375 3.90842 17.7626 3.90842 17.4697 4.20131C17.1768 4.49421 17.1768 4.96908 17.4697 5.26197L17.8697 5.66197C17.9314 5.72367 17.9566 5.74893 17.9769 5.76979C19.5796 7.41912 19.5796 10.0442 17.9769 11.6935C17.9566 11.7144 17.9314 11.7396 17.8697 11.8013L17.4697 12.2013C17.1768 12.4942 17.1768 12.9691 17.4697 13.262C17.7626 13.5549 18.2375 13.5549 18.5303 13.262L18.9357 12.8566C18.9904 12.8019 19.0239 12.7684 19.0526 12.7389C21.2211 10.5074 21.2211 6.95587 19.0526 4.72442C19.0239 4.69487 18.9905 4.66146 18.9357 4.60663L18.5303 4.20131Z" fill="#FAFAFA"/>
</svg>
